<mxfile host="Electron" modified="2024-01-07T16:49:05.565Z" agent="Mozilla/5.0 (X11; Linux x86_64) AppleWebKit/537.36 (KHTML, like Gecko) draw.io/22.1.16 Chrome/120.0.6099.109 Electron/28.1.0 Safari/537.36" etag="sIJODfti1ZRrbAwkV-Yu" version="22.1.16" type="device">
  <diagram name="Page-1" id="10a91c8b-09ff-31b1-d368-03940ed4cc9e">
    <mxGraphModel dx="880" dy="-324" grid="1" gridSize="10" guides="1" tooltips="1" connect="1" arrows="1" fold="1" page="1" pageScale="1" pageWidth="1100" pageHeight="850" background="none" math="0" shadow="0">
      <root>
        <mxCell id="0" />
        <mxCell id="1" parent="0" />
        <mxCell id="ckLz6G5cYpnjH2sYoa9v-338" style="rounded=0;orthogonalLoop=1;jettySize=auto;html=1;entryX=0.5;entryY=0;entryDx=0;entryDy=0;" parent="1" source="ckLz6G5cYpnjH2sYoa9v-331" target="ckLz6G5cYpnjH2sYoa9v-332" edge="1">
          <mxGeometry relative="1" as="geometry" />
        </mxCell>
        <mxCell id="ckLz6G5cYpnjH2sYoa9v-342" style="edgeStyle=none;shape=connector;rounded=0;orthogonalLoop=1;jettySize=auto;html=1;exitX=1;exitY=1;exitDx=0;exitDy=0;entryX=0.5;entryY=0;entryDx=0;entryDy=0;labelBackgroundColor=default;strokeColor=default;align=center;verticalAlign=middle;fontFamily=Helvetica;fontSize=11;fontColor=default;endArrow=classic;" parent="1" source="ckLz6G5cYpnjH2sYoa9v-331" target="ckLz6G5cYpnjH2sYoa9v-333" edge="1">
          <mxGeometry relative="1" as="geometry" />
        </mxCell>
        <mxCell id="ckLz6G5cYpnjH2sYoa9v-331" value="A" style="ellipse;whiteSpace=wrap;html=1;" parent="1" vertex="1">
          <mxGeometry x="380" y="910" width="120" height="80" as="geometry" />
        </mxCell>
        <mxCell id="ckLz6G5cYpnjH2sYoa9v-339" style="rounded=0;orthogonalLoop=1;jettySize=auto;html=1;entryX=0.5;entryY=0;entryDx=0;entryDy=0;" parent="1" source="ckLz6G5cYpnjH2sYoa9v-332" target="ckLz6G5cYpnjH2sYoa9v-334" edge="1">
          <mxGeometry relative="1" as="geometry" />
        </mxCell>
        <mxCell id="ckLz6G5cYpnjH2sYoa9v-340" style="edgeStyle=none;shape=connector;rounded=0;orthogonalLoop=1;jettySize=auto;html=1;entryX=0.5;entryY=0;entryDx=0;entryDy=0;labelBackgroundColor=default;strokeColor=default;align=center;verticalAlign=middle;fontFamily=Helvetica;fontSize=11;fontColor=default;endArrow=classic;" parent="1" source="ckLz6G5cYpnjH2sYoa9v-332" target="ckLz6G5cYpnjH2sYoa9v-335" edge="1">
          <mxGeometry relative="1" as="geometry" />
        </mxCell>
        <mxCell id="ckLz6G5cYpnjH2sYoa9v-332" value="B" style="ellipse;whiteSpace=wrap;html=1;" parent="1" vertex="1">
          <mxGeometry x="260" y="1030" width="120" height="80" as="geometry" />
        </mxCell>
        <mxCell id="ckLz6G5cYpnjH2sYoa9v-344" style="edgeStyle=none;shape=connector;rounded=0;orthogonalLoop=1;jettySize=auto;html=1;entryX=0.5;entryY=0;entryDx=0;entryDy=0;labelBackgroundColor=default;strokeColor=default;align=center;verticalAlign=middle;fontFamily=Helvetica;fontSize=11;fontColor=default;endArrow=classic;" parent="1" source="ckLz6G5cYpnjH2sYoa9v-333" target="ckLz6G5cYpnjH2sYoa9v-336" edge="1">
          <mxGeometry relative="1" as="geometry" />
        </mxCell>
        <mxCell id="ckLz6G5cYpnjH2sYoa9v-333" value="C" style="ellipse;whiteSpace=wrap;html=1;" parent="1" vertex="1">
          <mxGeometry x="500" y="1030" width="120" height="80" as="geometry" />
        </mxCell>
        <mxCell id="ckLz6G5cYpnjH2sYoa9v-341" style="edgeStyle=none;shape=connector;rounded=0;orthogonalLoop=1;jettySize=auto;html=1;exitX=0;exitY=1;exitDx=0;exitDy=0;entryX=0.5;entryY=0;entryDx=0;entryDy=0;labelBackgroundColor=default;strokeColor=default;align=center;verticalAlign=middle;fontFamily=Helvetica;fontSize=11;fontColor=default;endArrow=classic;" parent="1" source="ckLz6G5cYpnjH2sYoa9v-334" target="ckLz6G5cYpnjH2sYoa9v-337" edge="1">
          <mxGeometry relative="1" as="geometry" />
        </mxCell>
        <mxCell id="ckLz6G5cYpnjH2sYoa9v-334" value="D" style="ellipse;whiteSpace=wrap;html=1;" parent="1" vertex="1">
          <mxGeometry x="140" y="1160" width="120" height="80" as="geometry" />
        </mxCell>
        <mxCell id="ckLz6G5cYpnjH2sYoa9v-335" value="E" style="ellipse;whiteSpace=wrap;html=1;" parent="1" vertex="1">
          <mxGeometry x="380" y="1160" width="120" height="80" as="geometry" />
        </mxCell>
        <mxCell id="ckLz6G5cYpnjH2sYoa9v-336" value="F" style="ellipse;whiteSpace=wrap;html=1;" parent="1" vertex="1">
          <mxGeometry x="550" y="1160" width="120" height="80" as="geometry" />
        </mxCell>
        <mxCell id="ckLz6G5cYpnjH2sYoa9v-337" value="G" style="ellipse;whiteSpace=wrap;html=1;" parent="1" vertex="1">
          <mxGeometry x="20" y="1275" width="120" height="80" as="geometry" />
        </mxCell>
        <mxCell id="ckLz6G5cYpnjH2sYoa9v-345" value="&lt;font style=&quot;font-size: 36px;&quot;&gt;T1={BDEG}&lt;br&gt;T2={C,F}&lt;/font&gt;" style="rounded=1;whiteSpace=wrap;html=1;fontFamily=Helvetica;fontSize=11;fontColor=default;" parent="1" vertex="1">
          <mxGeometry x="720" y="910" width="340" height="120" as="geometry" />
        </mxCell>
        <mxCell id="ckLz6G5cYpnjH2sYoa9v-346" value="&lt;font style=&quot;font-size: 36px;&quot;&gt;T11={D,G}&lt;/font&gt;" style="rounded=1;whiteSpace=wrap;html=1;fontFamily=Helvetica;fontSize=11;fontColor=default;" parent="1" vertex="1">
          <mxGeometry x="720" y="1050" width="340" height="160" as="geometry" />
        </mxCell>
      </root>
    </mxGraphModel>
  </diagram>
</mxfile>
